 16 3 2
  0.0000000000000000E+00  0.0000000000000000E+00  0.0000000000000000E+00
  1.0000000000000000E+00  0.0000000000000000E+00  0.0000000000000000E+00
  1.0000000000000000E+00  1.0000000000000000E+00  0.0000000000000000E+00
  0.0000000000000000E+00  1.0000000000000000E+00  0.0000000000000000E+00
  0.0000000000000000E+00  0.0000000000000000E+00  1.0000000000000000E+00
  1.0000000000000000E+00  0.0000000000000000E+00  1.0000000000000000E+00
  1.0000000000000000E+00  1.0000000000000000E+00  1.0000000000000000E+00
  0.0000000000000000E+00  1.0000000000000000E+00  1.0000000000000000E+00
  0.0000000000000000E+00  0.0000000000000000E+00  2.0000000000000000E+00
  1.0000000000000000E+00  0.0000000000000000E+00  2.0000000000000000E+00
  1.0000000000000000E+00  1.0000000000000000E+00  2.0000000000000000E+00
  0.0000000000000000E+00  1.0000000000000000E+00  2.0000000000000000E+00
  0.0000000000000000E+00  0.0000000000000000E+00  3.0000000000000000E+00
  1.0000000000000000E+00  0.0000000000000000E+00  3.0000000000000000E+00
  1.0000000000000000E+00  1.0000000000000000E+00  3.0000000000000000E+00
  0.0000000000000000E+00  1.0000000000000000E+00  3.0000000000000000E+00
 1 2 3 4 5 6 7 8
 1 1 0 1 0 0
  0.0000000000000000E+00  0.0000000000000000E+00  0.0000000000000000E+00
  4.9999999999999994E-01  0.0000000000000000E+00  0.0000000000000000E+00
  1.0000000000000000E+00  0.0000000000000000E+00  0.0000000000000000E+00
  0.0000000000000000E+00  0.0000000000000000E+00  4.9999999999999994E-01
  4.9999999999999989E-01  0.0000000000000000E+00  4.9999999999999989E-01
  1.0000000000000000E+00  0.0000000000000000E+00  4.9999999999999994E-01
  0.0000000000000000E+00  0.0000000000000000E+00  1.0000000000000000E+00
  4.9999999999999994E-01  0.0000000000000000E+00  1.0000000000000000E+00
  1.0000000000000000E+00  0.0000000000000000E+00  1.0000000000000000E+00
  0.0000000000000000E+00  1.0000000000000000E+00  0.0000000000000000E+00
  4.9999999999999994E-01  1.0000000000000000E+00  0.0000000000000000E+00
  1.0000000000000000E+00  1.0000000000000000E+00  0.0000000000000000E+00
  0.0000000000000000E+00  1.0000000000000000E+00  4.9999999999999994E-01
  4.9999999999999989E-01  1.0000000000000000E+00  4.9999999999999989E-01
  1.0000000000000000E+00  1.0000000000000000E+00  4.9999999999999994E-01
  0.0000000000000000E+00  1.0000000000000000E+00  1.0000000000000000E+00
  4.9999999999999994E-01  1.0000000000000000E+00  1.0000000000000000E+00
  1.0000000000000000E+00  1.0000000000000000E+00  1.0000000000000000E+00
  1.0000000000000000E+00  0.0000000000000000E+00  0.0000000000000000E+00
  1.0000000000000000E+00  4.9999999999999994E-01  0.0000000000000000E+00
  1.0000000000000000E+00  1.0000000000000000E+00  0.0000000000000000E+00
  1.0000000000000000E+00  0.0000000000000000E+00  4.9999999999999994E-01
  1.0000000000000000E+00  4.9999999999999989E-01  4.9999999999999989E-01
  1.0000000000000000E+00  1.0000000000000000E+00  4.9999999999999994E-01
  1.0000000000000000E+00  0.0000000000000000E+00  1.0000000000000000E+00
  1.0000000000000000E+00  4.9999999999999994E-01  1.0000000000000000E+00
  1.0000000000000000E+00  1.0000000000000000E+00  1.0000000000000000E+00
 --- --- --- --- --- ---
 6 7 8 5 10 11 12 9
 0 0 0 0 0 1
  1.0000000000000000E+00  0.0000000000000000E+00  1.0000000000000000E+00
  5.0000000000000000E-01  0.0000000000000000E+00  1.0000000000000000E+00
  0.0000000000000000E+00  0.0000000000000000E+00  1.0000000000000000E+00
  1.0000000000000000E+00  0.0000000000000000E+00  1.5000000000000000E+00
  5.0000000000000000E-01  0.0000000000000000E+00  1.5000000000000000E+00
  0.0000000000000000E+00  0.0000000000000000E+00  1.5000000000000000E+00
  1.0000000000000000E+00  0.0000000000000000E+00  2.0000000000000000E+00
  5.0000000000000000E-01  0.0000000000000000E+00  2.0000000000000000E+00
  0.0000000000000000E+00  0.0000000000000000E+00  2.0000000000000000E+00
 --- --- --- --- --- ---
 11 12 9 10 15 16 13 14
 0 0 0 0 0 0
 --- --- --- --- --- ---
