 32 9 1
  0.0000000000000000E+00  0.0000000000000000E+00  0.0000000000000000E+00
  1.0000000000000000E+00  0.0000000000000000E+00  0.0000000000000000E+00
  2.0000000000000000E+00  0.0000000000000000E+00  0.0000000000000000E+00
  3.0000000000000000E+00  0.0000000000000000E+00  0.0000000000000000E+00
  0.0000000000000000E+00  1.0000000000000000E+00  0.0000000000000000E+00
  1.0000000000000000E+00  1.0000000000000000E+00  0.0000000000000000E+00
  2.0000000000000000E+00  1.0000000000000000E+00  0.0000000000000000E+00
  3.0000000000000000E+00  1.0000000000000000E+00  0.0000000000000000E+00
  0.0000000000000000E+00  2.0000000000000000E+00  0.0000000000000000E+00
  1.0000000000000000E+00  2.0000000000000000E+00  0.0000000000000000E+00
  2.0000000000000000E+00  2.0000000000000000E+00  0.0000000000000000E+00
  3.0000000000000000E+00  2.0000000000000000E+00  0.0000000000000000E+00
  0.0000000000000000E+00  3.0000000000000000E+00  0.0000000000000000E+00
  1.0000000000000000E+00  3.0000000000000000E+00  0.0000000000000000E+00
  2.0000000000000000E+00  3.0000000000000000E+00  0.0000000000000000E+00
  3.0000000000000000E+00  3.0000000000000000E+00  0.0000000000000000E+00
  0.0000000000000000E+00  0.0000000000000000E+00  1.0000000000000000E+00
  1.0000000000000000E+00  0.0000000000000000E+00  1.0000000000000000E+00
  2.0000000000000000E+00  0.0000000000000000E+00  1.0000000000000000E+00
  3.0000000000000000E+00  0.0000000000000000E+00  1.0000000000000000E+00
  0.0000000000000000E+00  1.0000000000000000E+00  1.0000000000000000E+00
  1.0000000000000000E+00  1.0000000000000000E+00  1.0000000000000000E+00
  2.0000000000000000E+00  1.0000000000000000E+00  1.0000000000000000E+00
  3.0000000000000000E+00  1.0000000000000000E+00  1.0000000000000000E+00
  0.0000000000000000E+00  2.0000000000000000E+00  1.0000000000000000E+00
  1.0000000000000000E+00  2.0000000000000000E+00  1.0000000000000000E+00
  2.0000000000000000E+00  2.0000000000000000E+00  1.0000000000000000E+00
  3.0000000000000000E+00  2.0000000000000000E+00  1.0000000000000000E+00
  0.0000000000000000E+00  3.0000000000000000E+00  1.0000000000000000E+00
  1.0000000000000000E+00  3.0000000000000000E+00  1.0000000000000000E+00
  2.0000000000000000E+00  3.0000000000000000E+00  1.0000000000000000E+00
  3.0000000000000000E+00  3.0000000000000000E+00  1.0000000000000000E+00
 1 2 6 5 17 18 22 21 mat1
 0 0 0 0 0 0
 south1 --- bottom1 --- top1 west1
 2 3 7 6 18 19 23 22 mat2
 0 0 0 0 0 0
 south2 --- bottom2 --- top2 ---
 3 4 8 7 19 20 24 23 mat3
 0 0 0 0 0 0
 south3 --- bottom3 east1 top3 ---
 5 6 10 9 21 22 26 25 mat4
 0 0 0 0 0 0
 --- --- bottom4 --- top4 west2
 6 7 11 10 22 23 27 26 mat5
 0 0 0 0 0 0
 --- --- bottom5 --- top5 ---
 7 8 12 11 23 24 28 27 mat6
 0 0 0 0 0 0
 --- --- bottom6 east2 top6 ---
 9 10 14 13 25 26 30 29 mat7
 0 0 0 0 0 0
 --- north1 bottom7 --- top7 west3
 10 11 15 14 26 27 31 30 mat8
 0 0 0 0 0 0
 --- north2 bottom8 --- top8 ---
 11 12 16 15 27 28 32 31 mat9
 0 0 0 0 0 0
 --- north3 bottom9 east3 top9 ---
