 12 2 1
  0.0000000000000000E+00  0.0000000000000000E+00  0.0000000000000000E+00
  1.0000000000000000E+00  0.0000000000000000E+00  0.0000000000000000E+00
  1.0000000000000000E+00  1.0000000000000000E+00  0.0000000000000000E+00
  0.0000000000000000E+00  1.0000000000000000E+00  0.0000000000000000E+00
  0.0000000000000000E+00  0.0000000000000000E+00  1.0000000000000000E+00
  1.0000000000000000E+00  0.0000000000000000E+00  1.0000000000000000E+00
  1.0000000000000000E+00  1.0000000000000000E+00  1.0000000000000000E+00
  0.0000000000000000E+00  1.0000000000000000E+00  1.0000000000000000E+00
  0.0000000000000000E+00  0.0000000000000000E+00  2.0000000000000000E+00
  1.0000000000000000E+00  0.0000000000000000E+00  2.0000000000000000E+00
  1.0000000000000000E+00  1.0000000000000000E+00  2.0000000000000000E+00
  0.0000000000000000E+00  1.0000000000000000E+00  2.0000000000000000E+00
 1 2 3 4 5 6 7 8
 0 0 0 0 0 0
 --- --- --- --- --- ---
 5 7 6 8 9 11 10 12
 0 0 0 0 0 0
 --- --- --- --- --- ---
