 27 8 1
  0.0000000000000000E+00  0.0000000000000000E+00  0.0000000000000000E+00
  5.0000000000000000E-01  0.0000000000000000E+00  0.0000000000000000E+00
  1.0000000000000000E+00  0.0000000000000000E+00  0.0000000000000000E+00
  0.0000000000000000E+00  5.0000000000000000E-01  0.0000000000000000E+00
  5.0000000000000000E-01  5.0000000000000000E-01  0.0000000000000000E+00
  1.0000000000000000E+00  5.0000000000000000E-01  0.0000000000000000E+00
  0.0000000000000000E+00  1.0000000000000000E+00  0.0000000000000000E+00
  5.0000000000000000E-01  1.0000000000000000E+00  0.0000000000000000E+00
  1.0000000000000000E+00  1.0000000000000000E+00  0.0000000000000000E+00
  0.0000000000000000E+00  0.0000000000000000E+00  5.0000000000000000E-01
  5.0000000000000000E-01  0.0000000000000000E+00  5.0000000000000000E-01
  1.0000000000000000E+00  0.0000000000000000E+00  5.0000000000000000E-01
  0.0000000000000000E+00  5.0000000000000000E-01  5.0000000000000000E-01
  5.0000000000000000E-01  5.0000000000000000E-01  5.0000000000000000E-01
  1.0000000000000000E+00  5.0000000000000000E-01  5.0000000000000000E-01
  0.0000000000000000E+00  1.0000000000000000E+00  5.0000000000000000E-01
  5.0000000000000000E-01  1.0000000000000000E+00  5.0000000000000000E-01
  1.0000000000000000E+00  1.0000000000000000E+00  5.0000000000000000E-01
  0.0000000000000000E+00  0.0000000000000000E+00  1.0000000000000000E+00
  5.0000000000000000E-01  0.0000000000000000E+00  1.0000000000000000E+00
  1.0000000000000000E+00  0.0000000000000000E+00  1.0000000000000000E+00
  0.0000000000000000E+00  5.0000000000000000E-01  1.0000000000000000E+00
  5.0000000000000000E-01  5.0000000000000000E-01  1.0000000000000000E+00
  1.0000000000000000E+00  5.0000000000000000E-01  1.0000000000000000E+00
  0.0000000000000000E+00  1.0000000000000000E+00  1.0000000000000000E+00
  5.0000000000000000E-01  1.0000000000000000E+00  1.0000000000000000E+00
  1.0000000000000000E+00  1.0000000000000000E+00  1.0000000000000000E+00
 1 2 5 4 10 11 14 13
 1 1 1 1 0 1
  0.0000000000000000E+00  0.0000000000000000E+00  0.0000000000000000E+00
  5.0000000000000000E-01  0.0000000000000000E+00  0.0000000000000000E+00
  0.0000000000000000E+00  0.0000000000000000E+00  5.0000000000000000E-01
  5.0000000000000000E-01  0.0000000000000000E+00  5.0000000000000000E-01
  0.0000000000000000E+00  5.0000000000000000E-01  0.0000000000000000E+00
  5.0000000000000000E-01  5.0000000000000000E-01  0.0000000000000000E+00
  0.0000000000000000E+00  5.0000000000000000E-01  5.0000000000000000E-01
  5.0000000000000000E-01  5.0000000000000000E-01  5.0000000000000000E-01
  0.0000000000000000E+00  0.0000000000000000E+00  0.0000000000000000E+00
  5.0000000000000000E-01  0.0000000000000000E+00  0.0000000000000000E+00
  0.0000000000000000E+00  5.0000000000000000E-01  0.0000000000000000E+00
  5.0000000000000000E-01  5.0000000000000000E-01  0.0000000000000000E+00
  5.0000000000000000E-01  0.0000000000000000E+00  0.0000000000000000E+00
  5.0000000000000000E-01  5.0000000000000000E-01  0.0000000000000000E+00
  5.0000000000000000E-01  0.0000000000000000E+00  5.0000000000000000E-01
  5.0000000000000000E-01  5.0000000000000000E-01  5.0000000000000000E-01
  0.0000000000000000E+00  0.0000000000000000E+00  0.0000000000000000E+00
  0.0000000000000000E+00  5.0000000000000000E-01  0.0000000000000000E+00
  0.0000000000000000E+00  0.0000000000000000E+00  5.0000000000000000E-01
  0.0000000000000000E+00  5.0000000000000000E-01  5.0000000000000000E-01
 south --- bottom --- --- west
 2 3 6 5 11 12 15 14
 1 1 1 1 0 1
  5.0000000000000000E-01  0.0000000000000000E+00  0.0000000000000000E+00
  1.0000000000000000E+00  0.0000000000000000E+00  0.0000000000000000E+00
  5.0000000000000000E-01  0.0000000000000000E+00  5.0000000000000000E-01
  1.0000000000000000E+00  0.0000000000000000E+00  5.0000000000000000E-01
  5.0000000000000000E-01  5.0000000000000000E-01  0.0000000000000000E+00
  1.0000000000000000E+00  5.0000000000000000E-01  0.0000000000000000E+00
  5.0000000000000000E-01  5.0000000000000000E-01  5.0000000000000000E-01
  1.0000000000000000E+00  5.0000000000000000E-01  5.0000000000000000E-01
  5.0000000000000000E-01  0.0000000000000000E+00  0.0000000000000000E+00
  1.0000000000000000E+00  0.0000000000000000E+00  0.0000000000000000E+00
  5.0000000000000000E-01  5.0000000000000000E-01  0.0000000000000000E+00
  1.0000000000000000E+00  5.0000000000000000E-01  0.0000000000000000E+00
  1.0000000000000000E+00  0.0000000000000000E+00  0.0000000000000000E+00
  1.0000000000000000E+00  5.0000000000000000E-01  0.0000000000000000E+00
  1.0000000000000000E+00  0.0000000000000000E+00  5.0000000000000000E-01
  1.0000000000000000E+00  5.0000000000000000E-01  5.0000000000000000E-01
  5.0000000000000000E-01  0.0000000000000000E+00  0.0000000000000000E+00
  5.0000000000000000E-01  5.0000000000000000E-01  0.0000000000000000E+00
  5.0000000000000000E-01  0.0000000000000000E+00  5.0000000000000000E-01
  5.0000000000000000E-01  5.0000000000000000E-01  5.0000000000000000E-01
 south --- bottom east --- ---
 4 5 8 7 13 14 17 16
 1 1 1 1 0 1
  0.0000000000000000E+00  5.0000000000000000E-01  0.0000000000000000E+00
  5.0000000000000000E-01  5.0000000000000000E-01  0.0000000000000000E+00
  0.0000000000000000E+00  5.0000000000000000E-01  5.0000000000000000E-01
  5.0000000000000000E-01  5.0000000000000000E-01  5.0000000000000000E-01
  0.0000000000000000E+00  1.0000000000000000E+00  0.0000000000000000E+00
  5.0000000000000000E-01  1.0000000000000000E+00  0.0000000000000000E+00
  0.0000000000000000E+00  1.0000000000000000E+00  5.0000000000000000E-01
  5.0000000000000000E-01  1.0000000000000000E+00  5.0000000000000000E-01
  0.0000000000000000E+00  5.0000000000000000E-01  0.0000000000000000E+00
  5.0000000000000000E-01  5.0000000000000000E-01  0.0000000000000000E+00
  0.0000000000000000E+00  1.0000000000000000E+00  0.0000000000000000E+00
  5.0000000000000000E-01  1.0000000000000000E+00  0.0000000000000000E+00
  5.0000000000000000E-01  5.0000000000000000E-01  0.0000000000000000E+00
  5.0000000000000000E-01  1.0000000000000000E+00  0.0000000000000000E+00
  5.0000000000000000E-01  5.0000000000000000E-01  5.0000000000000000E-01
  5.0000000000000000E-01  1.0000000000000000E+00  5.0000000000000000E-01
  0.0000000000000000E+00  5.0000000000000000E-01  0.0000000000000000E+00
  0.0000000000000000E+00  1.0000000000000000E+00  0.0000000000000000E+00
  0.0000000000000000E+00  5.0000000000000000E-01  5.0000000000000000E-01
  0.0000000000000000E+00  1.0000000000000000E+00  5.0000000000000000E-01
 --- north bottom --- --- west
 5 6 9 8 14 15 18 17
 1 1 1 1 0 1
  5.0000000000000000E-01  5.0000000000000000E-01  0.0000000000000000E+00
  1.0000000000000000E+00  5.0000000000000000E-01  0.0000000000000000E+00
  5.0000000000000000E-01  5.0000000000000000E-01  5.0000000000000000E-01
  1.0000000000000000E+00  5.0000000000000000E-01  5.0000000000000000E-01
  5.0000000000000000E-01  1.0000000000000000E+00  0.0000000000000000E+00
  1.0000000000000000E+00  1.0000000000000000E+00  0.0000000000000000E+00
  5.0000000000000000E-01  1.0000000000000000E+00  5.0000000000000000E-01
  1.0000000000000000E+00  1.0000000000000000E+00  5.0000000000000000E-01
  5.0000000000000000E-01  5.0000000000000000E-01  0.0000000000000000E+00
  1.0000000000000000E+00  5.0000000000000000E-01  0.0000000000000000E+00
  5.0000000000000000E-01  1.0000000000000000E+00  0.0000000000000000E+00
  1.0000000000000000E+00  1.0000000000000000E+00  0.0000000000000000E+00
  1.0000000000000000E+00  5.0000000000000000E-01  0.0000000000000000E+00
  1.0000000000000000E+00  1.0000000000000000E+00  0.0000000000000000E+00
  1.0000000000000000E+00  5.0000000000000000E-01  5.0000000000000000E-01
  1.0000000000000000E+00  1.0000000000000000E+00  5.0000000000000000E-01
  5.0000000000000000E-01  5.0000000000000000E-01  0.0000000000000000E+00
  5.0000000000000000E-01  1.0000000000000000E+00  0.0000000000000000E+00
  5.0000000000000000E-01  5.0000000000000000E-01  5.0000000000000000E-01
  5.0000000000000000E-01  1.0000000000000000E+00  5.0000000000000000E-01
 --- north bottom east --- ---
 10 11 14 13 19 20 23 22
 0 0 0 0 0 0
 south --- --- --- top west
 11 12 15 14 20 21 24 23
 0 0 0 0 0 0
 south --- --- east top ---
 13 14 17 16 22 23 26 25
 0 0 0 0 0 0
 --- north --- --- top west
 14 15 18 17 23 24 27 26
 0 0 0 0 0 0
 --- north --- east top ---
